<?xml version="1.0" encoding="UTF-8"?>
<svg id="Layer_1" data-name="Layer 1" xmlns="http://www.w3.org/2000/svg" viewBox="0 0 1907.4 330.65">
  <defs>
    <style>
      .cls-1 {
        fill: #2c51a2;
        stroke-width: 0px;
      }
    </style>
  </defs>
  <path class="cls-1" d="M243.14,263.54h-68.65V104.2h-.63l-52.92,70.96-51.59-70.96h-.7v159.34H0V0h65.13l55.82,77.42L178.01,0h65.13v263.54Z"/>
  <path class="cls-1" d="M352.75,330.65h-66.07l30.14-83.88-69.28-178.08h73.11l27.95,92.23h.63l27.87-92.23h67.95l-92.29,261.96Z"/>
  <path class="cls-1" d="M648.67,263.54h-68.65v-83.57h-74.99c.36,26.99,9.13,54.85,26.3,83.57l-55.74,37.1c-8.45-12.76-15.75-26.35-21.88-40.76-6.13-14.41-10.82-29.27-14.05-44.58-3.24-15.31-4.85-30.52-4.85-45.64s1.7-31.23,5.09-46.43c3.39-15.2,8.61-29.68,15.66-43.44,7.05-13.76,15.86-25.96,26.46-36.62,11.64-11.82,24.1-20.86,37.38-27.13,13.28-6.27,27.12-10.51,41.53-12.72,14.4-2.21,30.95-3.31,49.63-3.31h33.66l16.05,59.39h-53.86c-22.34,0-39.96,3.23-52.88,9.68-12.92,6.45-21.95,13.66-27.08,21.63-5.14,7.97-10.03,17.93-14.68,29.89h68.26v-53.09h68.65v196.04Z"/>
  <path class="cls-1" d="M773.81,68.68c17.21,0,30.89,2.63,41.04,7.88,10.14,5.25,17.37,13.3,21.67,24.14,4.3,10.84,6.46,25.11,6.46,42.81v120.03h-61.53v-110.98c-.26-9.77-.85-16.54-1.76-20.32-.91-3.78-3.14-6.48-6.69-8.11s-9.71-2.57-18.47-2.84h-14.72v142.25h-61.53V68.68h95.54Z"/>
  <path class="cls-1" d="M929.66,52.61h-61.53V0h61.53v52.61ZM929.66,263.54h-61.53V68.68h61.53v194.86Z"/>
  <path class="cls-1" d="M1139.31,68.68c17.27,0,30.98,2.63,41.14,7.88,10.15,5.25,17.38,13.3,21.68,24.14s6.46,25.11,6.46,42.81v120.03h-59.96v-110.98c-.26-9.77-.85-16.54-1.76-20.32-.91-3.78-3.15-6.48-6.69-8.11s-9.71-2.57-18.47-2.84h-9.95v142.25h-59.96V121.29h-36.87v142.25h-59.96V68.68h184.36Z"/>
  <path class="cls-1" d="M1373.08,263.54h-37.18c-20.09,0-38.8-5.45-56.13-16.34-17.33-10.89-31.07-25.6-41.22-44.11-10.15-18.51-15.23-38.37-15.23-59.58.26-18.32,3.34-33.29,9.24-44.89,5.9-11.6,15.33-20.24,28.3-25.91,12.97-5.67,30.07-8.51,51.31-8.51h12.76c48.54,0,72.8,17.96,72.8,53.88,0,13.5-3.3,25.77-9.9,36.82-6.6,11.05-14.98,20.69-25.13,28.91-10.15,8.22-21.88,16.08-35.19,23.59,10.7,2.36,22.88,3.54,36.56,3.54h24.34l-15.34,52.61ZM1316.01,116.81c-19.88,0-29.83,9.68-29.83,29.04,0,7.56,1.38,15.29,4.15,23.21,6-3.1,12.34-6.86,19.02-11.29,6.68-4.43,12.6-9.43,17.77-14.99,5.17-5.56,7.75-10.88,7.75-15.98,0-4.35-1.75-7.11-5.25-8.26-3.5-1.15-8.04-1.73-13.62-1.73Z"/>
  <path class="cls-1" d="M1484.64,204.15h90.1l-16.05,59.39h-142.7V0h68.65v204.15Z"/>
  <path class="cls-1" d="M1645.83,52.61h-61.53V0h61.53v52.61ZM1645.83,263.54h-61.53V68.68h61.53v194.86Z"/>
  <path class="cls-1" d="M1780.49,119.64h-27.55c-6.79,0-11.43.5-13.93,1.5-2.51,1-3.76,2.97-3.76,5.91,0,2.05,1.72,5.28,5.17,9.69l27.24,34.58c12.42,15.54,18.63,30.38,18.63,44.5,0,8.4-2,16.25-5.99,23.55-3.99,7.3-9.69,13.15-17.1,17.56-7.41,4.41-15.87,6.62-25.37,6.62h-62.55l-15.34-52.61h33.97c.99,0,2.69.12,5.09.35,2.4.24,4.43.35,6.1.35,6.63,0,9.94-1.73,9.94-5.2,0-1.1-.29-2.32-.86-3.66-.58-1.34-1.3-2.68-2.19-4.02-.89-1.34-1.8-2.64-2.74-3.9-.94-1.26-1.88-2.47-2.82-3.62l-25.99-33.87c-6.21-8.09-10.92-15.45-14.13-22.09-3.21-6.64-4.82-13.9-4.82-21.78,0-5.72,1.59-12.04,4.78-18.94,3.18-6.9,8.66-12.94,16.44-18.12,7.78-5.17,18.03-7.76,30.77-7.76h51.59l15.42,50.96Z"/>
  <path class="cls-1" d="M1867.32,68.68h32.41v50.96h-32.41v74.19c0,10.87,5.24,16.57,15.73,17.09h24.34l-15.34,52.61h-27.87c-18.58,0-32.96-4.45-43.13-13.35-10.18-8.9-15.26-24.35-15.26-46.35v-84.2h-13.78v-50.96h13.78V30.64l61.53-18.43v56.47Z"/>
</svg>